<svg xmlns="http://www.w3.org/2000/svg" width="207" height="50" viewBox="0 0 207 50"><path d="M126.848 19.338c-.721-.505-1.824-.758-3.311-.758-.809 0-1.621.12-2.441.354a7.544 7.544 0 0 0-2.246 1.077c-.686.475-1.254 1.09-1.723 1.854-.467.753-.754 1.648-.85 2.681-.105 1.089 0 2.012.299 2.77.303.754.656 1.437 1.057 2.048.408.616.792 1.192 1.154 1.75.365.559.551 1.17.551 1.831.021 1.196-.201 2.104-.682 2.726-.477.629-1.141.936-2 .936-.657 0-1.146-.223-1.463-.674a2.436 2.436 0 0 1-.361-.789c.084-.119.182-.223.27-.35a21.139 21.139 0 0 0 1.517-2.446l-.15-.071c.025 0 .041-.004.075-.004-.732-.665-1.432-.957-2.102-.882-.666.084-1.223.358-1.668.837-.442.479-.725 1.091-.862 1.83a3.669 3.669 0 0 0 .172 2.004c-.347.238-.69.416-1.022.51-.404.102-.729.129-.97.075-.235-.054-.411-.16-.53-.315a1.18 1.18 0 0 1-.188-.598 2.37 2.37 0 0 1 .097-.754c.303-.902.666-1.904 1.082-3.01a89.135 89.135 0 0 1 1.303-3.282c.453-1.082.9-2.128 1.338-3.144l1.158-2.627c.148-.318.098-.695-.156-1.13a7.826 7.826 0 0 0-.926-1.276c-.361-.412-.871-.908-1.529-1.493-.299-.235-.711-.284-1.225-.138-.521.146-1.087.417-1.701.815-.623.399-1.271.882-1.955 1.454a24.654 24.654 0 0 0-1.928 1.808c.125-.319.256-.603.379-.855.131-.248.228-.47.308-.655.098-.209.186-.412.266-.594l.177-.435a.99.99 0 0 0-.066-.908.891.891 0 0 0-.762-.435h-3.568l-.698 1.777a273.133 273.133 0 0 0-1.815 4.174l-1.078 2.569c-.361.861-.716 1.689-1.061 2.486a84.77 84.77 0 0 0-.906 2.207c-.261.678-.488 1.24-.661 1.692-.308.847-1.812 1.755-2.282 1.231l.467-.599a12.478 12.478 0 0 0 1.744-3.536c.4-1.303.674-2.578.83-3.847.146-1.259.172-2.446.075-3.559-.101-1.116-.29-2.016-.568-2.707a54.152 54.152 0 0 0-1.668-.953c-.45-.262-.901-.519-1.36-.754a24.897 24.897 0 0 0-1.095-.558 5.195 5.195 0 0 0-.737-.218c-.291-.066-.631-.013-1.04.173-.501.244-1.153.616-1.946 1.117-.795.505-1.629 1.188-2.501 2.052-.868.864-1.714 1.932-2.548 3.217-.834 1.291-1.541 2.85-2.119 4.679-.576 1.73-.766 3.164-.551 4.316.021.076.042.144.055.213a10.099 10.099 0 0 1-2.283 1.459c-.846.385-1.663.615-2.459.678-.796.066-1.461-.075-2.004-.434-.539-.363-.906-.939-1.1-1.734-.182-.797-.102-1.86.252-3.182.324-1.228.783-2.33 1.382-3.328.589-.992 1.226-1.865 1.907-2.602.679-.744 1.373-1.338 2.076-1.794.852-.479 2.396-1.091 2.688-.244.248.723.076 1.409-.253 1.835.3.168.135.08.396.257.473-.372 1.672-2.087 1.841-2.89a.618.618 0 0 0 .013-.128c.004-.036.021-.08.013-.106 0-.009-.005-.018-.009-.027a1.59 1.59 0 0 0-.201-.664 7.682 7.682 0 0 0-.885-1.308c-.358-.425-.852-.935-1.486-1.542-.295-.257-.771-.403-1.322-.283-.447.097-2.691.655-4.646 2.344l.018.009a18.78 18.78 0 0 0-1.398 1.259c-.871.864-1.723 1.932-2.553 3.217-.833 1.29-1.541 2.85-2.113 4.68-.582 1.729-.767 3.164-.552 4.316.06.323.135.611.228.899a8.901 8.901 0 0 1-1.057.992c-.422.313-.83.532-1.234.639-.404.103-.725.128-.961.075-.24-.055-.42-.16-.534-.314a1.145 1.145 0 0 1-.186-.599 2.258 2.258 0 0 1 .097-.754 40.06 40.06 0 0 1 .717-2.093c.277-.752.576-1.532.884-2.329.315-.794.64-1.587.969-2.367.329-.778.644-1.528.943-2.246a443.302 443.302 0 0 1 2.271-5.092l.181-.439a.99.99 0 0 0-.076-.908.881.881 0 0 0-.758-.43H65.43l-.699 1.777a327.104 327.104 0 0 0-1.799 4.174c-.35.853-.716 1.706-1.082 2.569-.362.861-.712 1.689-1.053 2.486a64.226 64.226 0 0 0-.91 2.207c-.262.678-.488 1.24-.661 1.692-.304.767-.388 1.454-.249 2.048.144.594.409 1.09.813 1.489.404.403.909.704 1.512.917a5.564 5.564 0 0 0 1.853.322c.885 0 1.706-.172 2.46-.519a8.17 8.17 0 0 0 2.102-1.396c.206-.19.409-.408.606-.631.139.223.291.426.451.613a5.17 5.17 0 0 0 2.189 1.492c.846.288 1.613.438 2.291.438 1.162 0 2.253-.164 3.289-.479a10.635 10.635 0 0 0 2.838-1.352c.484-.338.936-.715 1.361-1.104.193.363.404.709.66 1.002a5.222 5.222 0 0 0 2.19 1.493c.847.288 1.613.438 2.291.438 1.458 0 2.75-.26 3.858-.779a9.56 9.56 0 0 0 1.537-.891c.791.395 2.211.221 3.912-1.125.102.563.332 1.045.695 1.443.365.395.829.705 1.381.932a6.094 6.094 0 0 0 1.739.42c.025-.238.126-.65.299-1.24.181-.575.446-1.428.796-2.539.278-.877.615-1.844 1.02-2.889.408-1.047.82-2.102 1.25-3.164v.084c1.032-1.623 2.006-2.898 2.909-3.842.91-.939 1.687-1.604 2.33-1.99.641-.381 1.107-.519 1.397-.416.29.105.345.367.173.797-.379.896-.787 1.844-1.213 2.841-.43.997-.847 1.972-1.246 2.925a163.1 163.1 0 0 0-1.096 2.646 167.62 167.62 0 0 0-.801 2.012c-.299.768-.383 1.454-.239 2.048.135.595.417 1.09.825 1.489.422.402.927.703 1.516.917.59.213 1.219.323 1.875.323.859 0 1.664-.174 2.417-.52.577-.262 1.108-.615 1.617-1.02.271.279.585.545.974.779.82.502 1.975.758 3.461.758.455 0 1.063-.098 1.832-.278a9.381 9.381 0 0 0 2.33-.935 7.07 7.07 0 0 0 2.063-1.795c.59-.755.947-1.716 1.074-2.886.102-1.006-.056-1.94-.473-2.782a20.584 20.584 0 0 0-1.419-2.451 28.097 28.097 0 0 1-1.437-2.349 4.061 4.061 0 0 1-.493-2.482c.075-.771.338-1.396.792-1.87.455-.479.969-.722 1.558-.722.498 0 .835.257 1.017.758.177.5.223 1.072.131 1.692a4.027 4.027 0 0 1-.619 1.692c-.328.501-.746.758-1.251.758.733.661 1.474.953 2.231.868a3.645 3.645 0 0 0 2.006-.833 4.616 4.616 0 0 0 1.338-1.83c.32-.745.393-1.463.231-2.167-.178-.691-.617-1.293-1.332-1.794zm-33.713 5.411a14.107 14.107 0 0 1-.27 2.104 23.83 23.83 0 0 1-.602 2.411 21.43 21.43 0 0 1-.91 2.446l-.867 1.674a9.63 9.63 0 0 1-1.457 1.867c-.539.526-1.125.904-1.761 1.115-.455.155-.854.133-1.209-.078-.354-.219-.632-.567-.829-1.061-.207-.492-.313-1.09-.328-1.809-.01-.719.096-1.512.328-2.385a13.298 13.298 0 0 1 1.453-3.443c.645-1.08 1.318-1.993 2.021-2.764.707-.771 1.406-1.379 2.105-1.813.686-.443 1.268-.665 1.718-.581.211.045.472.487.53.758.061.274.099.921.078 1.559zm-25.248-8.3c-.569-.595-.846-1.321-.846-2.172 0-.842.278-1.568.846-2.162.574-.598 1.255-.9 2.064-.9.805 0 1.499.301 2.08.9.577.594.867 1.32.867 2.162 0 .851-.29 1.577-.867 2.172-.581.598-1.275.895-2.08.895-.808 0-1.49-.297-2.064-.895zm99.12 0c-.567-.595-.854-1.321-.854-2.172 0-.842.287-1.568.854-2.162.569-.598 1.25-.9 2.06-.9.809 0 1.496.301 2.08.9.582.594.869 1.32.869 2.162 0 .851-.287 1.577-.869 2.172-.584.598-1.271.895-2.08.895s-1.491-.297-2.06-.895zm39.852-3.342a.899.899 0 0 0-.771-.443h-3.457l-.774 1.772c-.922 2.123-1.803 4.166-2.653 6.134l-.539 1.231c.034-.257-.038-.549-.228-.877a7.64 7.64 0 0 0-.926-1.281c-.363-.412-.878-.903-1.533-1.488-.299-.239-.775-.373-1.332-.23-.438.106-2.61.735-4.498 2.45-.008.009-.017.014-.024.022-.013.009-.034.018-.042.03v.005c-.24.208-.497.443-.762.714-.568.571-1.162 1.285-1.781 2.148-.619.864-1.23 1.915-1.832 3.161-.885 1.834-1.475 3.506-1.782 5.017-.278 1.427-.319 2.646-.139 3.683a8.543 8.543 0 0 1-.858.775c-.418.314-.83.531-1.234.639-.396.102-.721.128-.961.075-.239-.054-.42-.16-.524-.315a1.017 1.017 0 0 1-.19-.598 2.256 2.256 0 0 1 .094-.754c.303-.902.656-1.905 1.078-3.01a108.56 108.56 0 0 1 1.301-3.282c.455-1.082.906-2.128 1.348-3.144.438-1.005.826-1.882 1.15-2.627.15-.318.104-.695-.152-1.13a7.886 7.886 0 0 0-.926-1.276c-.367-.412-.876-.908-1.529-1.493-.303-.235-.711-.284-1.232-.138-.515.146-1.078.417-1.703.815-.613.399-1.262.882-1.944 1.454a24.848 24.848 0 0 0-1.929 1.808 11.9 11.9 0 0 1 .38-.855c.121-.248.228-.47.303-.655.103-.209.188-.412.267-.594l.186-.435a1.008 1.008 0 0 0-.072-.908.891.891 0 0 0-.762-.435h-3.568l-.693 1.777a201.1 201.1 0 0 0-1.819 4.174c-.354.853-.716 1.706-1.082 2.569-.362.861-.717 1.689-1.058 2.486a97.683 97.683 0 0 0-1.566 3.899c-.273.728-.361 1.374-.27 1.937-.01.006-.014.01-.018.014-.412.314-.83.533-1.234.64-.396.103-.719.128-.959.075-.235-.055-.418-.16-.526-.314a1.103 1.103 0 0 1-.188-.599 2.385 2.385 0 0 1 .092-.754c.199-.644.442-1.338.717-2.093.277-.752.576-1.532.885-2.33.32-.793.645-1.586.969-2.366.328-.778.648-1.528.943-2.246a443.823 443.823 0 0 1 2.273-5.092l.182-.439a.993.993 0 0 0-.076-.908.887.887 0 0 0-.758-.43h-3.58l-.699 1.777a278.19 278.19 0 0 0-1.798 4.174c-.354.853-.716 1.706-1.074 2.569-.37.861-.724 1.689-1.065 2.486a70.72 70.72 0 0 0-.909 2.207c-.261.678-.484 1.24-.656 1.692-.308.767-.388 1.454-.248 2.048 0 .01.004.018.004.025-.35.244-.698.422-1.045.516-.403.102-.726.128-.96.075-.244-.054-.417-.16-.529-.315a1.12 1.12 0 0 1-.195-.598 2.491 2.491 0 0 1 .098-.754c.305-.903.662-1.905 1.082-3.01.414-1.098.852-2.192 1.303-3.282.449-1.082.9-2.128 1.344-3.144.438-1.005.824-1.882 1.152-2.627.152-.318.098-.695-.15-1.13a8.282 8.282 0 0 0-.928-1.276c-.365-.412-.875-.908-1.527-1.493-.309-.235-.717-.284-1.233-.138-.519.146-1.078.417-1.706.815-.613.399-1.259.882-1.941 1.454a23.808 23.808 0 0 0-1.929 1.808l.037-.04c.151-.318.103-.695-.149-1.13a8.16 8.16 0 0 0-.929-1.276c-.364-.412-.875-.908-1.532-1.493-.304-.235-.711-.284-1.226-.138s-1.086.417-1.701.815a19.27 19.27 0 0 0-1.95 1.454 23.107 23.107 0 0 0-1.925 1.808c.122-.319.248-.603.375-.855.122-.248.228-.47.3-.655.102-.209.188-.412.27-.594l.182-.435a1.001 1.001 0 0 0-.068-.908.896.896 0 0 0-.766-.435h-3.559l-.703 1.777a232.288 232.288 0 0 0-1.82 4.174c-.354.853-.711 1.706-1.078 2.569-.361.861-.72 1.688-1.061 2.486a84.77 84.77 0 0 0-.906 2.207c-.265.678-.484 1.24-.665 1.692-.278.739-.362 1.396-.261 1.974.102.566.332 1.049.703 1.452.361.396.82.705 1.377.931a6.066 6.066 0 0 0 1.738.422c.031-.239.127-.651.305-1.24.172-.576.438-1.428.791-2.54.283-.877.619-1.843 1.023-2.89.399-1.045.821-2.101 1.246-3.164v.084c1.036-1.621 2.002-2.897 2.914-3.841.905-.939 1.682-1.604 2.321-1.99.647-.381 1.115-.519 1.397-.416.295.105.354.367.177.797-.38.896-.783 1.844-1.214 2.841-.43.997-.846 1.973-1.245 2.925-.4.953-.771 1.839-1.101 2.646-.328.808-.59 1.484-.796 2.013-.295.767-.384 1.454-.243 2.048.144.594.42 1.09.834 1.489a4.17 4.17 0 0 0 1.512.917 5.486 5.486 0 0 0 1.873.322h.072a5.408 5.408 0 0 1 .021-.975c.038-.359.093-.718.173-1.076.076-.359.151-.691.228-1.021.076-.313.135-.554.188-.709.278-.877.619-1.834 1.021-2.871.399-1.028.813-2.074 1.246-3.144v.045c1.032-1.621 2.006-2.897 2.914-3.841.909-.939 1.682-1.604 2.325-1.99.646-.381 1.115-.519 1.419-.416.299.105.362.367.186.797-.404.896-.816 1.844-1.25 2.841-.426.997-.838 1.973-1.238 2.925-.404.953-.775 1.839-1.104 2.646a90.183 90.183 0 0 0-.791 2.013c-.301.767-.39 1.454-.25 2.048.135.594.422 1.09.834 1.489.418.403.924.704 1.513.917s1.218.322 1.874.322c.855 0 1.664-.172 2.422-.519.535-.248 1.031-.575 1.512-.935.055.074.117.15.186.213.4.402.91.703 1.513.917a5.566 5.566 0 0 0 1.854.323c.883 0 1.7-.174 2.459-.52.58-.266 1.119-.625 1.639-1.037.05.071.101.143.16.204.361.396.82.705 1.381.931a6.064 6.064 0 0 0 1.734.422c.024-.239.131-.651.303-1.24.178-.576.443-1.428.797-2.54.277-.877.619-1.843 1.023-2.89.399-1.045.815-2.101 1.245-3.164v.084c1.032-1.621 2.001-2.897 2.91-3.841.91-.939 1.681-1.604 2.325-1.99.645-.381 1.111-.519 1.402-.416.285.105.345.367.168.797-.379.896-.778 1.844-1.209 2.841-.43.997-.842 1.973-1.246 2.925-.408.953-.771 1.839-1.1 2.646a81.922 81.922 0 0 0-.792 2.013c-.308.767-.388 1.454-.253 2.048.145.594.422 1.09.838 1.489.413.403.918.704 1.512.917a5.487 5.487 0 0 0 1.871.322c.854 0 1.664-.172 2.426-.519a8.192 8.192 0 0 0 2.093-1.396c.103-.098.198-.205.3-.307.266.52.619.957 1.078 1.303.783.586 1.818.869 3.104.869.931 0 1.803-.262 2.61-.808a10.23 10.23 0 0 0 2.228-2.091c.131.982.615 1.715 1.457 2.206a5.373 5.373 0 0 0 2.779.739c.855 0 1.668-.172 2.422-.519a8.166 8.166 0 0 0 2.098-1.396 12.567 12.567 0 0 0 1.8-2.053 22.87 22.87 0 0 0 1.512-2.445l-.946-.479c-.301.479-.634.972-1.004 1.472-.365.506-.74.983-1.133 1.437-.392.45-.796.837-1.208 1.155-.418.314-.83.533-1.229.64-.404.103-.732.128-.985.075-.249-.055-.435-.16-.548-.314-.113-.16-.178-.359-.189-.599s.025-.496.098-.754c.228-.644.515-1.431.871-2.37.351-.943.746-1.945 1.188-3.021.442-1.072.91-2.207 1.397-3.383.492-1.183.98-2.331 1.457-3.442 1.134-2.633 2.351-5.402 3.632-8.323l.185-.407a1.083 1.083 0 0 0-.08-.917zm-10.548 14.168a168.963 168.963 0 0 0-1.283 3.021c-.393.943-.725 1.75-1.004 2.406a21.837 21.837 0 0 1-1.924 2.428c-.711.771-1.401 1.25-2.084 1.438-.404.102-.729.109-.986.018a1.073 1.073 0 0 1-.563-.461 1.93 1.93 0 0 1-.248-.771 4.998 4.998 0 0 1-.018-.976c.079-1.696.393-3.234.942-4.617.558-1.379 1.205-2.592 1.95-3.643s1.509-1.915 2.291-2.605c.779-.687 1.423-1.179 1.925-1.472.197-.128.562-.35.939-.039.387.314 1.419 1.439 1.355 2.281a535.156 535.156 0 0 1-1.292 2.992zM32.41 1.138C25.609-3.338 7.399 6.247 2.774 15.044c-4.375 8.331-3.58 23.931 2.417 29.519 6.174 5.752 34.037 9.114 40.165-1.304 5.066-8.614-3.415-35.855-12.946-42.121zM15.754 16.072a1.897 1.897 0 0 1 1.432-.625c.547 0 1.032.213 1.436.625.4.416.602.913.602 1.502 0 .585-.202 1.086-.602 1.507a1.952 1.952 0 0 1-1.436.616 1.892 1.892 0 0 1-1.432-.616 2.125 2.125 0 0 1-.598-1.507c0-.589.202-1.086.598-1.502zm19.286 5.82c.257.293.472.586.636.887.186.297.224.567.114.784l-.8 1.821a85.72 85.72 0 0 0-.932 2.176c-.32.758-.615 1.516-.905 2.277a53.256 53.256 0 0 0-.75 2.084 1.835 1.835 0 0 0-.063.527c.008.158.05.305.13.411.08.11.198.183.366.222.169.035.388.019.666-.054.282-.075.569-.226.863-.442.3-.221.59-.487.864-.807.273-.311.529-.639.787-.992.248-.342.476-.684.69-1.021l.653.337a15.244 15.244 0 0 1-1.045 1.697 8.68 8.68 0 0 1-1.256 1.422 5.737 5.737 0 0 1-1.447.971 4.069 4.069 0 0 1-1.677.359c-.463 0-.893-.075-1.301-.23a2.777 2.777 0 0 1-1.049-.634 2.023 2.023 0 0 1-.581-1.028c-.093-.42-.038-.896.177-1.427.135-.362.32-.823.552-1.392.223-.559.472-1.176.754-1.836.282-.654.568-1.338.872-2.028a92.63 92.63 0 0 1 .863-1.968c.122-.297.076-.487-.135-.559-.21-.07-.531.031-.981.293-.447.271-1.196.731-1.824 1.378-.636.647-1.158 1.546-2.236 2.667v-.035c0 .744-.371 1.472-.653 2.181-.278.731-.404 1.383-.598 1.989-.034.119-.025.279-.08.506-.055.213-.076.447-.135.699-.051.248-.072.23-.101.476-.025.243-.017.407 0 .407h-.051c-.455 0-.889.195-1.293.044-.417-.142-.771-.226-1.057-.505-.286-.266-.48-.541-.577-.963-.093-.416-.034-.854.177-1.377.135-.377.32-.819.552-1.383.219-.568.476-1.166.754-1.826.282-.664.564-1.334.863-2.024.299-.695.581-1.348.846-1.968.114-.302.08-.487-.122-.559-.202-.075-.53.031-.968.293-.447.271-1.158.731-1.79 1.378-.624.647-1.12 1.546-2.186 2.667v-.058c0 .731-.417 1.468-.695 2.192-.278.728-.434 1.393-.619 2-.249.775-.396 1.365-.51 1.764-.122.406-.177.695-.189.863a3.932 3.932 0 0 1-1.192-.293c-.387-.158-.708-.371-.952-.65a1.908 1.908 0 0 1-.442-.811c-.13.146-.27.291-.408.425a5.829 5.829 0 0 1-1.461.971 4.12 4.12 0 0 1-1.702.358c-.438 0-.863-.074-1.284-.229a2.58 2.58 0 0 1-1.045-.634 1.938 1.938 0 0 1-.56-1.027c-.105-.422-.046-.896.165-1.428.126-.307.278-.699.455-1.17.189-.471.4-.979.632-1.533.231-.55.48-1.121.741-1.72.249-.603.501-1.196.741-1.781.392-.931.809-2.109 1.247-3.103l.488-1.436h2.481c.214 0 .408.319.522.501a.863.863 0 0 1 .055.731l-.122.35c-.547 1.201-1.07 2.406-1.579 3.563-.207.492-.43 1.033-.653 1.568-.228.545-.446 1.1-.669 1.653a50.836 50.836 0 0 0-.615 1.612 37.32 37.32 0 0 0-.497 1.449c-.05.194-.076.363-.067.531a.757.757 0 0 0 .135.412c.076.11.207.182.367.223.164.035.387.018.669-.055.278-.074.564-.227.851-.443.287-.221.573-.486.843-.806.13-.155.265-.337.4-.506.008-.013.013-.021.013-.044l.463-1.17c.185-.471.387-.979.627-1.533.231-.55.476-1.121.732-1.72.257-.603.505-1.196.75-1.781.4-.931.821-2.109 1.259-3.103l.484-1.436h2.472c.215 0 .413.319.535.505.109.19.13.527.042.731l-.122.346c-.059.133-.109.297-.181.438-.059.134-.135.297-.215.479a5.341 5.341 0 0 0-.261.595c.417-.443.859-.855 1.335-1.25.468-.399.922-.727 1.352-1.006a4.494 4.494 0 0 1 1.179-.567c.35-.093.636-.066.851.098.459.403.809.749 1.07 1.036.249.293.463.586.64.887.174.293.203.558.106.773.412-.43.849-.833 1.308-1.217.472-.403.918-.73 1.348-1.01a4.597 4.597 0 0 1 1.175-.567c.367-.093.649-.066.859.098.455.407.805.753 1.062 1.04zm-5.787 1.693c.011-.012.024-.021.036-.033l-.001.011-.035.022z"/></svg>